<svg xmlns="http://www.w3.org/2000/svg" width="1536" height="1050" viewBox="0 0 1536 1050" role="img" aria-labelledby="title desc"><title id="title">Engine-out · Quick VMC Return</title><desc id="desc">Engine-out · Quick VMC Return</desc><defs><marker id="arr" markerWidth="5" markerHeight="5" refX="4" refY="2.5" orient="auto-start-reverse"><path d="M0 0L5 2.5L0 5Z" fill="#087ee5"/></marker><marker id="dim" markerWidth="7" markerHeight="7" refX="6" refY="3.5" orient="auto-start-reverse"><path d="M0 0L7 3.5L0 7Z" fill="#526c7c"/></marker></defs><rect width="1536" height="1050" fill="#fff"/><g font-family="Segoe UI,Arial,sans-serif"><text x="56" y="47" font-size="14" fill="#007f92" font-weight="700" text-anchor="start">FENIX A320 · VISUAL LEARNING</text><text x="56" y="99" font-size="42" fill="#123052" font-weight="750" text-anchor="start">Engine-out · Quick VMC Return</text><text x="56" y="131" font-size="18" fill="#526c7c" font-weight="400" text-anchor="start">Draufsicht: Abflug, Rückkehr und Konfigurationspunkte in einem zusammenhängenden Flugweg.</text><path d="M56 152H1480" fill="none" stroke="#d9e4ea" stroke-width="1" stroke-linecap="round" stroke-linejoin="round"/><path d="M930 790L1260 650Q1420 590 1370 350H385Q170 350 175 570Q180 655 365 710L770 790" fill="none" stroke="#087ee5" stroke-width="5" stroke-linecap="round" stroke-linejoin="round"/><path d="M770 790h160l18 35H788Z" fill="#78868c" stroke="#314956" stroke-width="2"/><path d="M789.15 797h43" fill="none" stroke="#fff" stroke-width="2" stroke-linecap="round" stroke-linejoin="round"/><path d="M791.85 803h43" fill="none" stroke="#fff" stroke-width="2" stroke-linecap="round" stroke-linejoin="round"/><path d="M794.55 809h43" fill="none" stroke="#fff" stroke-width="2" stroke-linecap="round" stroke-linejoin="round"/><path d="M797.25 815h43" fill="none" stroke="#fff" stroke-width="2" stroke-linecap="round" stroke-linejoin="round"/><path d="M860 807h50" fill="none" stroke="#fff" stroke-width="2" stroke-linecap="round" stroke-linejoin="round" stroke-dasharray="18 15"/><path d="M1140 706l60 -25" fill="none" stroke="#087ee5" stroke-width="5" stroke-linecap="round" stroke-linejoin="round" marker-end="url(#arr)"/><path d="M1310 350h-50" fill="none" stroke="#087ee5" stroke-width="5" stroke-linecap="round" stroke-linejoin="round" marker-end="url(#arr)"/><path d="M720 350h-50" fill="none" stroke="#087ee5" stroke-width="5" stroke-linecap="round" stroke-linejoin="round" marker-end="url(#arr)"/><path d="M186 467l-4 46" fill="none" stroke="#087ee5" stroke-width="5" stroke-linecap="round" stroke-linejoin="round" marker-end="url(#arr)"/><path d="M530 743l50 10" fill="none" stroke="#087ee5" stroke-width="5" stroke-linecap="round" stroke-linejoin="round" marker-end="url(#arr)"/><path d="M770 350V790" fill="none" stroke="#d9e4ea" stroke-width="1.5" stroke-linecap="round" stroke-linejoin="round" stroke-dasharray="7 7"/><circle cx="770" cy="350" r="8" fill="#fff" stroke="#087ee5" stroke-width="4"/><circle cx="930" cy="790" r="8" fill="#fff" stroke="#087ee5" stroke-width="4"/><circle cx="1260" cy="650" r="8" fill="#fff" stroke="#087ee5" stroke-width="4"/><circle cx="1230" cy="350" r="8" fill="#fff" stroke="#087ee5" stroke-width="4"/><circle cx="385" cy="350" r="8" fill="#fff" stroke="#087ee5" stroke-width="4"/><circle cx="184.2" cy="602.8" r="8" fill="#fff" stroke="#087ee5" stroke-width="4"/><circle cx="365" cy="710" r="8" fill="#fff" stroke="#087ee5" stroke-width="4"/><polyline points="1170,637 1260,650" stroke="#526c7c" stroke-width="1.8" fill="none"/><rect x="830" y="493" width="415" height="144" rx="8" fill="#fff1c8" stroke="#007f92"/><path d="M838 493H1237Q1245 493 1245 501V535H830V501Q830 493 838 493Z" fill="#007f92"/><text x="846" y="521" font-size="20" fill="#fff" font-weight="650" text-anchor="start">Nach dem Start / EO ACC</text><text x="846" y="564" font-size="20" fill="#123052" font-weight="550" text-anchor="start">Sicherer Flugweg</text><text x="846" y="592" font-size="20" fill="#123052" font-weight="550" text-anchor="start">Level-off / selected S speed</text><text x="846" y="620" font-size="20" fill="#123052" font-weight="550" text-anchor="start">Über F: CONF 1, falls T/O CONF &gt; 1</text><polyline points="1230,350 1230,322" stroke="#526c7c" stroke-width="1.8" fill="none"/><rect x="1110" y="178" width="365" height="144" rx="8" fill="#fff1c8" stroke="#007f92"/><path d="M1118 178H1467Q1475 178 1475 186V220H1110V186Q1110 178 1118 178Z" fill="#007f92"/><text x="1126" y="206" font-size="20" fill="#fff" font-weight="650" text-anchor="start">At S speed / Downwind</text><text x="1126" y="249" font-size="20" fill="#123052" font-weight="550" text-anchor="start">CONF 1 und S beibehalten</text><text x="1126" y="277" font-size="20" fill="#123052" font-weight="550" text-anchor="start">APPR phase aktivieren</text><text x="1126" y="305" font-size="20" fill="#123052" font-weight="550" text-anchor="start">FCU speed PUSH</text><polyline points="770,350 770,312" stroke="#526c7c" stroke-width="1.8" fill="none"/><rect x="630" y="224" width="285" height="88" rx="8" fill="#fff1c8" stroke="#007f92"/><path d="M638 224H907Q915 224 915 232V266H630V232Q630 224 638 224Z" fill="#007f92"/><text x="646" y="252" font-size="20" fill="#fff" font-weight="650" text-anchor="start">Abeam threshold</text><text x="646" y="295" font-size="20" fill="#123052" font-weight="550" text-anchor="start">STOPWATCH START</text><polyline points="385,350 385,293" stroke="#526c7c" stroke-width="1.8" fill="none"/><rect x="227" y="205" width="295" height="88" rx="8" fill="#fff1c8" stroke="#007f92"/><path d="M235 205H514Q522 205 522 213V247H227V213Q227 205 235 205Z" fill="#007f92"/><text x="243" y="233" font-size="20" fill="#fff" font-weight="650" text-anchor="start">Turning base</text><text x="243" y="276" font-size="20" fill="#123052" font-weight="550" text-anchor="start">FLAPS 2</text><polyline points="184.2,602.8 390,530" stroke="#526c7c" stroke-width="1.8" fill="none"/><rect x="390" y="450" width="310" height="88" rx="8" fill="#fff1c8" stroke="#007f92"/><path d="M398 450H692Q700 450 700 458V492H390V458Q390 450 398 450Z" fill="#007f92"/><text x="406" y="478" font-size="20" fill="#fff" font-weight="650" text-anchor="start">Bei CONF 2</text><text x="406" y="521" font-size="20" fill="#123052" font-weight="550" text-anchor="start">L/G DOWN</text><polyline points="365,710 408,672" stroke="#526c7c" stroke-width="1.8" fill="none"/><rect x="408" y="584" width="298" height="88" rx="8" fill="#fff1c8" stroke="#007f92"/><path d="M416 584H698Q706 584 706 592V626H408V592Q408 584 416 584Z" fill="#007f92"/><text x="424" y="612" font-size="20" fill="#fff" font-weight="650" text-anchor="start">Fahrwerk ausgefahren</text><text x="424" y="655" font-size="20" fill="#123052" font-weight="550" text-anchor="start">Finale Landekonfiguration</text><path d="M385 385H770" fill="none" stroke="#526c7c" stroke-width="1.5" stroke-linecap="round" stroke-linejoin="round"/><text x="578" y="418" font-size="18" fill="#526c7c" font-weight="600" text-anchor="middle">45 s ± 1 s / kt Windkomponente</text><rect x="56" y="850" width="1424" height="100" rx="10" fill="#f1f7fa" stroke="#d9e4ea"/><text x="76" y="883" font-size="21" fill="#007f92" font-weight="700" text-anchor="start">Eigenständige Quick-return-Konfiguration</text><text x="76" y="912" font-size="17" fill="#526c7c" font-weight="400" text-anchor="start">Die dargestellte Variante bleibt in CONF 1. Nicht erst den vollständigen Clean-up aus dem anderen EO-Profil durchlaufen.</text><path d="M56 972H1480" fill="none" stroke="#d9e4ea" stroke-width="1" stroke-linecap="round" stroke-linejoin="round"/><text x="56" y="1002" font-size="15" fill="#526c7c" font-weight="400" text-anchor="start">V1 · FSLabs A320 Engine Out Quick VMC Return · simulator training profile</text><text x="56" y="1028" font-size="14" fill="#526c7c" font-weight="400" text-anchor="start">Schematic · Not to scale · For simulation use only</text></g></svg>